# xmcd
#
# Track frame offsets: 
#        150
#        17035
#        31962
#        47080
#        61205
#        71645
#        82595
#        96917
#        106437
#        117465
#
# Disc length: 1769 seconds
#
# Revision: 3
# Processed by: cddbd v1.5.2PL0 Copyright (c) Steve Scherf et al.
# Submitted via: ExactAudioCopyFreeDBPlugin 1.0
#
DISCID=7c06e70a
DTITLE=Various Artist - Nashville's Greatest Christmas Hits
DYEAR=1900
DGENRE=Country
TTITLE0=Willie Nelson - Silent Night, Holy Night
TTITLE1=Larry Gatlin and The Gatlin Brothers Band - Sweet Baby Jesus
TTITLE2=Connie Smith - O Come All Ye Faithful
TTITLE3=Marty Robbins - Hark! The Herald Angels Sing
TTITLE4=Ray Price - O Little Town Of Bethlehem
TTITLE5=Tammy Wynette - Away In A Manger
TTITLE6=Merle Haggard - White Christmas
TTITLE7=Johnny Cash - Joy To the World
TTITLE8=George Jones and Gene Watson - Silver Bells
TTITLE9=Chet Atkins - Do You Hear What I Hear?
EXTD=
EXTT0=Willie Nelson
EXTT1=Larry Gatlin and The Gatlin Brothers Band
EXTT2=Connie Smith
EXTT3=Marty Robbins
EXTT4=Ray Price
EXTT5=Tammy Wynette
EXTT6=Merle Haggard
EXTT7=Johnny Cash
EXTT8=George Jones and Gene Watson
EXTT9=Chet Atkins C.G.P.
PLAYORDER=
